<?xml version="1.0" standalone="no"?>
<!DOCTYPE svg PUBLIC "-//W3C//DTD SVG 1.1//EN" "http://www.w3.org/Graphics/SVG/1.1/DTD/svg11.dtd" >
<svg>
<metadata>
Created by FontForge 20120731 at Sat Oct 22 16:45:33 2016
 By ,,,
Copyright (c) 2016 by Fargus Meiser +  Lukas Bischoff artill. All rights reserved.
</metadata>
<defs>
<font id="PaulGrotesk-Thin-Trail" horiz-adv-x="501" >
  <font-face 
    font-family="Paul Grotesk Thin-Trail"
    font-weight="250"
    font-stretch="normal"
    units-per-em="1000"
    panose-1="0 0 3 0 0 0 0 0 0 0"
    ascent="800"
    descent="-200"
    x-height="500"
    cap-height="700"
    bbox="-30 -190 885 730"
    underline-thickness="19"
    underline-position="-132"
    unicode-range="U+0020-201E"
  />
<missing-glyph horiz-adv-x="659" 
d="M99 0v710h461v-710h-461zM121 20h417v670h-417v-670z" />
    <glyph glyph-name=".notdef" horiz-adv-x="659" 
d="M99 0v710h461v-710h-461zM121 20h417v670h-417v-670z" />
    <glyph glyph-name=".null" horiz-adv-x="0" 
 />
    <glyph glyph-name="nonmarkingreturn" horiz-adv-x="333" 
 />
    <glyph glyph-name="space" unicode=" " horiz-adv-x="210" 
 />
    <glyph glyph-name="exclam" unicode="!" horiz-adv-x="208" 
d="M124 137h-22v573h22v-573zM114 -10q-10 0 -17 7t-7 17t7 16.5t17 6.5q9 0 16 -6.5t7 -16.5t-7 -17t-16 -7z" />
    <glyph glyph-name="quotedbl" unicode="&#x22;" horiz-adv-x="286" 
d="M110 465h-17l-3 235h23zM211 465h-17l-3 235h23z" />
    <glyph glyph-name="ampersand" unicode="&#x26;" horiz-adv-x="652" 
d="M600 0h-28q-13 15 -116 123q-108 -131 -231 -131q-80 0 -127.5 47t-47.5 124q0 69 40.5 122t118.5 100q-93 113 -93 190q0 61 42 100.5t109 39.5q61 0 99 -34.5t46 -95.5l-22 -4q-5 52 -38.5 83t-85.5 31q-58 0 -93 -34t-35 -86q0 -18 4 -35.5t14 -38t20 -37.5t30.5 -42
t35.5 -43t44.5 -49t49.5 -51.5t57.5 -59.5t61.5 -64q46 62 101 165l20 -10q-57 -106 -107 -170q87 -92 131 -140zM227 12q115 0 215 126q-181 187 -219 232q-75 -48 -113 -97t-38 -110q0 -66 40.5 -108.5t114.5 -42.5z" />
    <glyph glyph-name="quotesingle" unicode="'" horiz-adv-x="185" 
d="M110 465h-17l-3 235h23z" />
    <glyph glyph-name="parenleft" unicode="(" horiz-adv-x="215" 
d="M178 721q-104 -199 -104 -413q0 -211 104 -413h-20q-108 220 -108 413t108 413h20z" />
    <glyph glyph-name="parenright" unicode=")" horiz-adv-x="215" 
d="M37 721h20q108 -220 108 -413t-108 -413h-20q104 202 104 413q0 214 -104 413z" />
    <glyph glyph-name="plus" unicode="+" horiz-adv-x="551" 
d="M466 327v-20h-180v-188h-21v188h-180v20h180v188h21v-188h180z" />
    <glyph glyph-name="comma" unicode="," horiz-adv-x="235" 
d="M140 37q10 0 17 -6.5t7 -16.5q0 -3 -0.5 -6t-2 -8.5t-3.5 -10.5t-6.5 -17t-9.5 -24.5t-13.5 -35t-17.5 -46.5h-21l46 124q-20 5 -20 24q0 10 7 16.5t17 6.5z" />
    <glyph glyph-name="hyphen" unicode="-" horiz-adv-x="320" 
d="M20 269v20h280v-20h-280z" />
    <glyph glyph-name="period" unicode="." horiz-adv-x="209" 
d="M114 -10q-10 0 -17 7t-7 17t7 16.5t17 6.5q9 0 16 -6.5t7 -16.5t-7 -17t-16 -7z" />
    <glyph glyph-name="slash" unicode="/" horiz-adv-x="397" 
d="M324 730h24l-275 -815h-23z" />
    <glyph glyph-name="zero" unicode="0" 
d="M254 694q94 0 149.5 -95t55.5 -257q0 -161 -55.5 -255.5t-149.5 -94.5q-95 0 -150.5 94.5t-55.5 255.5q0 162 55.5 257t150.5 95zM254 674q-85 0 -134.5 -89.5t-49.5 -242.5t49.5 -241.5t134.5 -88.5q84 0 133.5 89t49.5 241q0 153 -49.5 242.5t-133.5 89.5z" />
    <glyph glyph-name="one" unicode="1" 
d="M282 672h22v-672h-22v652l-135 -15v20z" />
    <glyph glyph-name="two" unicode="2" 
d="M87 20h355v-20h-389v18q184 190 229 242q114 133 127 226q2 15 2 30q0 73 -43 115.5t-116 42.5q-68 0 -112 -49.5t-53 -133.5l-20 2q9 93 59 147t128 54q83 0 131 -48t48 -130q0 -48 -17.5 -94t-71 -114t-91 -109.5t-135.5 -145.5q-20 -22 -31 -33z" />
    <glyph glyph-name="three" unicode="3" 
d="M303 338q68 -12 106.5 -55t38.5 -112q0 -81 -53.5 -130t-136.5 -49q-77 0 -129.5 44t-73.5 126l21 3q20 -74 67 -113.5t115 -39.5q74 0 121 43.5t47 115.5q0 74 -49 115t-135 41h-46v20h46q78 0 124.5 45.5t46.5 121.5q0 74 -44 117t-117 43q-135 0 -172 -156l-22 3
q40 173 194 173q83 0 133 -48t50 -130q0 -68 -35.5 -116t-96.5 -62z" />
    <glyph glyph-name="four" unicode="4" 
d="M463 216v-20h-118v-196h-22v196h-299v20l301 462h20v-462h118zM51 216h272v418z" />
    <glyph glyph-name="five" unicode="5" 
d="M250 437q90 0 142.5 -59.5t52.5 -161.5q0 -104 -54 -165t-146 -61q-76 0 -125.5 49t-57.5 132l21 3q8 -76 51.5 -120t110.5 -44q82 0 130 55.5t48 150.5q0 93 -46.5 147t-125.5 54q-61 0 -106.5 -35t-63.5 -94h-18l15 396h342v-20h-320l-13 -317q22 42 66 66t97 24z" />
    <glyph glyph-name="six" unicode="6" 
d="M254 439q66 0 111.5 -36t64 -86.5t18.5 -109.5q0 -38 -10 -74t-31.5 -68.5t-61.5 -52.5t-93 -20q-61 0 -102 21.5t-62 63t-29.5 90t-8.5 114.5q0 413 211 413q141 0 175 -168l-20 -3q-17 76 -52 113.5t-102 37.5q-98 0 -144 -102.5t-46 -271.5q21 71 71 105t111 34z
M252 12q81 0 127.5 51t46.5 144q0 94 -47 153t-125 59q-81 0 -129 -58.5t-48 -153.5q0 -93 46.5 -144t128.5 -51z" />
    <glyph glyph-name="seven" unicode="7" 
d="M61 684h393v-20l-290 -664h-25l291 664h-369v20z" />
    <glyph glyph-name="eight" unicode="8" 
d="M311 350q66 -10 105 -56t39 -114q0 -87 -54.5 -137.5t-147.5 -50.5t-147 50.5t-54 137.5q0 68 38.5 113.5t104.5 55.5q-59 7 -93.5 52.5t-34.5 115.5q0 82 50 129.5t136 47.5t136.5 -47.5t50.5 -129.5q0 -63 -35 -108.5t-94 -58.5zM89 518q0 -73 44 -116t120 -43
t120.5 43t44.5 116q0 72 -44.5 114t-120.5 42t-120 -42t-44 -114zM253 12q83 0 131.5 45t48.5 123q0 73 -48.5 116t-131.5 43t-131 -42.5t-48 -116.5q0 -78 48 -123t131 -45z" />
    <glyph glyph-name="nine" unicode="9" 
d="M246 693q61 0 102 -21.5t62 -63t29.5 -89.5t8.5 -114q0 -115 -16.5 -197.5t-46.5 -128.5t-66.5 -66.5t-81.5 -20.5q-144 0 -182 166l21 3q19 -75 55 -112t105 -37q66 0 110 51.5t62 133t18 191.5q-20 -73 -70.5 -107.5t-112.5 -34.5q-96 0 -144.5 69t-48.5 163
q0 38 10 74t31.5 68.5t61.5 52.5t93 20zM244 266q81 0 129 58.5t48 153.5q0 93 -47 144t-128 51q-82 0 -128 -50.5t-46 -144.5q0 -95 46.5 -153.5t125.5 -58.5z" />
    <glyph glyph-name="question" unicode="?" horiz-adv-x="490" 
d="M244 710q86 0 136.5 -45.5t50.5 -123.5q0 -36 -11 -63.5t-28.5 -47t-39 -37.5t-43 -39.5t-39 -48.5t-28.5 -69.5t-11 -97.5h-21q0 76 20.5 131t50 85t58.5 55t49.5 57t20.5 75q0 69 -44.5 109t-120.5 40q-66 0 -111.5 -45t-57.5 -122l-22 3q13 85 64 134.5t127 49.5z
M221 -10q-11 0 -17.5 7t-6.5 17q0 9 7 16t17 7q9 0 16 -7t7 -16q0 -10 -7 -17t-16 -7z" />
    <glyph glyph-name="A" unicode="A" horiz-adv-x="593" 
d="M558 0l-93 238h-339l-91 -238h-25l272 700h25l276 -700h-25zM134 258h323l-162 418z" />
    <glyph glyph-name="B" unicode="B" horiz-adv-x="553" 
d="M349 364q71 -10 112.5 -57.5t41.5 -120.5q0 -85 -55 -135.5t-147 -50.5h-202v700h182q91 0 143.5 -45.5t52.5 -124.5q0 -63 -34.5 -108t-93.5 -58zM455 531q0 70 -46 109.5t-128 39.5h-160v-306h161q79 0 126 42.5t47 114.5zM301 20q82 0 131 45.5t49 120.5
q0 79 -53 123.5t-146 44.5h-161v-334h180z" />
    <glyph glyph-name="C" unicode="C" horiz-adv-x="652" 
d="M346 712q99 0 166 -58t80 -168l-20 -3q-12 104 -75 156.5t-152 52.5q-120 0 -189 -92t-69 -247q0 -157 69.5 -249t187.5 -92q94 0 158.5 56.5t77.5 151.5l20 -3q-14 -109 -84.5 -167t-169.5 -58q-129 0 -205 97.5t-76 263.5q0 164 75.5 261.5t205.5 97.5z" />
    <glyph glyph-name="D" unicode="D" horiz-adv-x="685" 
d="M271 700q161 0 255.5 -94t94.5 -255q0 -162 -94.5 -256.5t-255.5 -94.5h-172v700h172zM270 20q152 0 240.5 89t88.5 242q0 151 -88.5 240t-239.5 89h-150v-660h149z" />
    <glyph glyph-name="E" unicode="E" horiz-adv-x="517" 
d="M121 20h356v-20h-378v700h368v-20h-346v-315h309v-20h-309v-325z" />
    <glyph glyph-name="F" unicode="F" horiz-adv-x="497" 
d="M467 680h-346v-333h309v-19h-309v-328h-22v700h368v-20z" />
    <glyph glyph-name="G" unicode="G" horiz-adv-x="680" 
d="M369 321h257v-12q0 -155 -73.5 -236t-199.5 -81q-137 0 -212.5 94t-75.5 261q0 169 76 268.5t205 99.5q95 0 168.5 -54.5t94.5 -160.5l-21 -3q-19 96 -85.5 147t-155.5 51q-120 0 -190 -93.5t-70 -253.5q0 -157 69.5 -246.5t196.5 -89.5q113 0 181 73.5t69 215.5h-234v20
z" />
    <glyph glyph-name="H" unicode="H" horiz-adv-x="659" 
d="M538 700h22v-700h-22v353h-417v-353h-22v700h22v-327h417v327z" />
    <glyph glyph-name="I" unicode="I" horiz-adv-x="221" 
d="M121 0h-22v700h22v-700z" />
    <glyph glyph-name="J" unicode="J" horiz-adv-x="269" 
d="M0 0v20h64q53 0 81 29t28 85v566h22v-566q0 -64 -34.5 -99t-94.5 -35h-66z" />
    <glyph glyph-name="K" unicode="K" horiz-adv-x="550" 
d="M506 0l-297 376l-88 -96v-280h-22v700h22v-388l353 388h27l-277 -306l311 -394h-29z" />
    <glyph glyph-name="L" unicode="L" horiz-adv-x="480" 
d="M121 20h349v-20h-371v700h22v-680z" />
    <glyph glyph-name="M" unicode="M" horiz-adv-x="806" 
d="M680 699h26v-699h-22v662l-79 -208l-190 -454h-24l-191 455l-79 207v-662h-22v700h27l277 -672z" />
    <glyph glyph-name="N" unicode="N" horiz-adv-x="680" 
d="M559 700h22v-700h-26l-322 491l-112 184v-675h-22v700h27l313 -481l120 -192v673z" />
    <glyph glyph-name="O" unicode="O" horiz-adv-x="717" 
d="M359 715q137 0 215.5 -96.5t78.5 -263.5t-79 -265t-215 -98q-135 0 -214.5 98t-79.5 265q0 166 79 263t215 97zM359 695q-125 0 -198.5 -91.5t-73.5 -248.5t73.5 -250t198.5 -93q126 0 199 92.5t73 250.5t-73 249t-199 91z" />
    <glyph glyph-name="P" unicode="P" horiz-adv-x="536" 
d="M305 700q95 0 150.5 -51t55.5 -138t-55.5 -138t-150.5 -51h-184v-322h-22v700h206zM304 342q85 0 135 45.5t50 123.5t-50 123.5t-135 45.5h-183v-338h183z" />
    <glyph glyph-name="Q" unicode="Q" horiz-adv-x="718" 
d="M423 -2q9 -50 66 -81.5t142 -31.5v-19q-98 0 -160.5 35t-68.5 94q-21 -3 -43 -3q-135 0 -214.5 98t-79.5 265q0 166 79 263t215 97q137 0 215.5 -96.5t78.5 -263.5q0 -145 -61 -239.5t-169 -117.5zM87 355q0 -157 73.5 -250t198.5 -93q126 0 199 92.5t73 250.5t-73 249
t-199 91q-125 0 -198.5 -91.5t-73.5 -248.5z" />
    <glyph glyph-name="R" unicode="R" horiz-adv-x="559" 
d="M497 0l-205 332h-171v-332h-22v700h212q95 0 150.5 -49.5t55.5 -134.5q0 -83 -53 -132.5t-145 -51.5l205 -332h-27zM121 680v-328h189q85 0 135 44t50 120t-50 120t-135 44h-189z" />
    <glyph glyph-name="S" unicode="S" horiz-adv-x="546" 
d="M289 -8q-110 0 -174 57t-75 160l21 3q10 -96 70 -148t159 -52q88 0 138.5 41t50.5 116q0 49 -23 83.5t-60 54t-81.5 34l-89 29t-81.5 34t-60 54.5t-23 84q0 83 58.5 127.5t147.5 44.5q93 0 151 -50t73 -138l-20 -4q-14 82 -66 127t-134 45q-81 0 -134.5 -40.5
t-53.5 -111.5q0 -44 23 -75t60 -48.5t81.5 -32t89 -30.5t81.5 -37t60 -59t23 -91q0 -85 -57 -131t-155 -46z" />
    <glyph glyph-name="T" unicode="T" horiz-adv-x="494" 
d="M489 700v-20h-230v-680h-22v680h-232v20h484z" />
    <glyph glyph-name="U" unicode="U" horiz-adv-x="636" 
d="M546 700v-471q0 -109 -61.5 -173t-166.5 -64t-166.5 64t-61.5 173v471h22v-471q0 -100 55.5 -158.5t150.5 -58.5t150.5 58.5t55.5 158.5v471h22z" />
    <glyph glyph-name="V" unicode="V" horiz-adv-x="561" 
d="M527 700h24l-256 -700h-29l-256 700h25l246 -674z" />
    <glyph glyph-name="W" unicode="W" horiz-adv-x="895" 
d="M862 700h23l-211 -700h-25l-202 670l-201 -670h-25l-211 700h23l201 -673l201 673h25l201 -673z" />
    <glyph glyph-name="X" unicode="X" horiz-adv-x="569" 
d="M554 0h-29l-241 340l-242 -340h-27l253 357l-243 343h28l231 -328l233 328h27l-244 -342z" />
    <glyph glyph-name="Y" unicode="Y" horiz-adv-x="523" 
d="M489 700h24l-240 -407v-293h-22v293l-241 407h25l227 -384z" />
    <glyph glyph-name="Z" unicode="Z" horiz-adv-x="476" 
d="M38 20h428v-20h-456v20l410 660h-394v20h422v-20z" />
    <glyph glyph-name="a" unicode="a" horiz-adv-x="478" 
d="M236 514q81 0 127.5 -48.5t46.5 -132.5v-333h-21v85q-20 -44 -68.5 -69t-109.5 -25q-75 0 -118 37t-43 101q0 68 48.5 108t130.5 40q94 0 159 -43v99q0 74 -41 117.5t-111 43.5q-61 0 -98.5 -31t-45.5 -87l-22 3q7 63 51.5 99t114.5 36zM216 11q78 0 125 43t47 115v40
q-63 49 -158 49q-73 0 -115.5 -34.5t-42.5 -93.5q0 -55 38 -87t106 -32z" />
    <glyph glyph-name="b" unicode="b" horiz-adv-x="535" 
d="M290 514q90 0 142.5 -70t52.5 -190t-52.5 -190.5t-142.5 -70.5q-64 0 -110.5 36.5t-68.5 102.5v-132h-21v730h21v-355q22 66 68.5 102.5t110.5 36.5zM288 13q80 0 127.5 65t47.5 176t-47.5 175.5t-127.5 64.5q-81 0 -129 -64.5t-48 -175.5t48 -176t129 -65z" />
    <glyph glyph-name="c" unicode="c" horiz-adv-x="466" 
d="M249 514q75 0 125.5 -46.5t57.5 -121.5l-19 -3q-6 67 -50.5 109t-111.5 42q-82 0 -130.5 -65.5t-48.5 -176.5q0 -110 48.5 -174t131.5 -64q68 0 112.5 41.5t48.5 112.5l20 -3q-4 -78 -54 -124.5t-127 -46.5q-93 0 -147.5 69.5t-54.5 188.5q0 120 54.5 191t144.5 71z" />
    <glyph glyph-name="d" unicode="d" horiz-adv-x="535" 
d="M424 730h21v-730h-21v132q-22 -66 -68.5 -102.5t-110.5 -36.5q-90 0 -142.5 70.5t-52.5 190.5t52.5 190t142.5 70q64 0 110.5 -36.5t68.5 -102.5v355zM247 13q81 0 129 65t48 176t-48 175.5t-129 64.5q-80 0 -127.5 -64.5t-47.5 -175.5t47.5 -176t127.5 -65z" />
    <glyph glyph-name="e" unicode="e" horiz-adv-x="498" 
d="M269 12q65 0 110 35.5t56 100.5l21 -3q-13 -75 -65 -114t-124 -39q-99 0 -158 71t-59 193q0 119 56 188.5t150 69.5q93 0 148.5 -68t55.5 -185h-388v-2q0 -113 52.5 -180t144.5 -67zM256 494q-80 0 -129 -56.5t-54 -155.5h365q-4 98 -53 155t-129 57z" />
    <glyph glyph-name="f" unicode="f" horiz-adv-x="243" 
d="M199 710q-38 0 -60.5 -25t-22.5 -67v-118h93v-21h-93v-479h-22v479h-80v21h80v118q0 52 27.5 82t75.5 30h39v-20h-37z" />
    <glyph glyph-name="g" unicode="g" horiz-adv-x="510" 
d="M423 500h22v-494q0 -90 -52 -143t-140 -53q-74 0 -122 39t-60 106l20 3q14 -62 56 -95t106 -33q79 0 124.5 48.5t45.5 131.5v122q-22 -66 -68 -102.5t-110 -36.5q-90 0 -142.5 70.5t-52.5 190.5t52.5 190t142.5 70q64 0 110.5 -37t68.5 -104zM247 13q81 0 128.5 65
t47.5 176t-47.5 175.5t-128.5 64.5t-128 -64.5t-47 -175.5t47 -176t128 -65z" />
    <glyph glyph-name="h" unicode="h" horiz-adv-x="515" 
d="M277 514q76 0 121 -49.5t45 -134.5v-330h-22v324q0 79 -39.5 124.5t-108.5 45.5q-74 0 -118 -50.5t-44 -136.5v-307h-21v730h21v-323q18 51 61.5 79t104.5 28z" />
    <glyph glyph-name="i" unicode="i" horiz-adv-x="201" 
d="M101 639q-10 0 -16.5 6.5t-6.5 16.5q0 9 6.5 16t16.5 7q9 0 15.5 -7t6.5 -16q0 -10 -6 -16.5t-16 -6.5zM111 0h-21v500h21v-500z" />
    <glyph glyph-name="j" unicode="j" horiz-adv-x="179" 
d="M97 639q-10 0 -16.5 6.5t-6.5 16.5q0 9 6.5 16t16.5 7q9 0 15.5 -7t6.5 -16q0 -10 -6 -16.5t-16 -6.5zM107 500v-568q0 -57 -27 -89.5t-74 -32.5h-36v20h35q37 0 58.5 27.5t21.5 74.5v568h22z" />
    <glyph glyph-name="k" unicode="k" horiz-adv-x="436" 
d="M399 0l-210 284l-78 -82v-202h-21v730h21v-498l257 268h29l-191 -199l221 -301h-28z" />
    <glyph glyph-name="l" unicode="l" horiz-adv-x="201" 
d="M90 0v730h21v-730h-21z" />
    <glyph glyph-name="m" unicode="m" horiz-adv-x="821" 
d="M588 514q75 0 118.5 -49.5t43.5 -134.5v-330h-22v334q0 74 -38 117t-104 43q-72 0 -114 -48t-42 -130v-316h-21v334q0 74 -38 117t-105 43q-71 0 -113 -48t-42 -130v-316h-21v500h21l-1 -92q18 50 59.5 78t98.5 28q60 0 100.5 -31.5t54.5 -88.5q16 55 59.5 87.5
t105.5 32.5z" />
    <glyph glyph-name="n" unicode="n" horiz-adv-x="515" 
d="M274 514q79 0 124 -49.5t45 -135.5v-329h-22v334q0 74 -40.5 117t-110.5 43q-73 0 -116 -48t-43 -130v-316h-21v500h21l-1 -95q18 51 61 80t103 29z" />
    <glyph glyph-name="o" unicode="o" horiz-adv-x="522" 
d="M261 -8q-97 0 -154 70.5t-57 190.5t57 190.5t154 70.5t154 -70.5t57 -190.5t-57 -190.5t-154 -70.5zM261 12q88 0 138.5 65t50.5 176t-50.5 176t-138.5 65q-87 0 -138 -65t-51 -176t51 -176t138 -65z" />
    <glyph glyph-name="p" unicode="p" horiz-adv-x="535" 
d="M290 514q90 0 142.5 -70t52.5 -190t-52.5 -190.5t-142.5 -70.5q-64 0 -110.5 36.5t-68.5 102.5v-322h-21v690h21l-1 -127q22 67 68.5 104t111.5 37zM288 13q80 0 127.5 65t47.5 176t-47.5 175.5t-127.5 64.5q-81 0 -129 -64.5t-48 -175.5t48 -176t129 -65z" />
    <glyph glyph-name="q" unicode="q" horiz-adv-x="535" 
d="M424 500h21v-690h-21v322q-22 -66 -68.5 -102.5t-110.5 -36.5q-90 0 -142.5 70.5t-52.5 190.5t52.5 190t142.5 70q65 0 111.5 -37t68.5 -104zM247 13q81 0 129 65t48 176t-48 175.5t-129 64.5q-80 0 -127.5 -64.5t-47.5 -175.5t47.5 -176t127.5 -65z" />
    <glyph glyph-name="r" unicode="r" horiz-adv-x="314" 
d="M271 511h18v-22h-18q-74 0 -117 -54.5t-43 -148.5v-286h-21v500h21l-1 -107q18 56 60 87t101 31z" />
    <glyph glyph-name="s" unicode="s" horiz-adv-x="442" 
d="M229 -8q-75 0 -125 40t-54 119l20 2q6 -71 50.5 -106t107.5 -35q64 0 102 31.5t38 81.5q0 45 -31.5 72.5t-77 41t-91 27.5t-77 44.5t-31.5 80.5q0 59 42 91t112 32q68 0 110.5 -34.5t51.5 -101.5l-19 -3q-7 57 -44 88t-99 31q-60 0 -96 -27t-36 -74q0 -44 31.5 -70.5
t77 -40t91 -28.5t77 -47t31.5 -83q0 -61 -44 -96.5t-117 -35.5z" />
    <glyph glyph-name="t" unicode="t" horiz-adv-x="289" 
d="M198 20h66v-20h-73q-42 0 -66.5 29.5t-24.5 79.5v371h-78v20h78v105h22v-105h134v-20h-134v-369q0 -42 20.5 -66.5t55.5 -24.5z" />
    <glyph glyph-name="u" unicode="u" horiz-adv-x="505" 
d="M393 500h22v-500h-21l1 100q-17 -51 -58.5 -79.5t-100.5 -28.5q-76 0 -120 49.5t-44 134.5v324h22v-329q0 -74 39.5 -116.5t106.5 -42.5q71 0 112 47.5t41 129.5v311z" />
    <glyph glyph-name="v" unicode="v" horiz-adv-x="427" 
d="M400 500h22l-195 -500h-28l-194 500h23l186 -478z" />
    <glyph glyph-name="w" unicode="w" horiz-adv-x="686" 
d="M656 500h25l-158 -500h-31l-149 475l-149 -475h-31l-158 500h25l149 -472l149 472h30l150 -472z" />
    <glyph glyph-name="x" unicode="x" horiz-adv-x="423" 
d="M413 0h-30l-173 240l-172 -240h-28l185 256l-175 244h29l162 -228l164 228h28l-176 -243z" />
    <glyph glyph-name="y" unicode="y" horiz-adv-x="408" 
d="M379 500h24l-251 -690h-24l68 190h-10l-181 500h25l174 -483z" />
    <glyph glyph-name="z" unicode="z" horiz-adv-x="387" 
d="M48 20h321v-20h-351v18l317 462h-307v20h337v-18z" />
    <glyph glyph-name="guillemotleft" unicode="&#xab;" horiz-adv-x="429" 
d="M236 444l-123 -190l123 -190h-22l-124 190l124 190h22zM357 444l-122 -190l122 -190h-21l-124 190l124 190h21z" />
    <glyph glyph-name="guillemotright" unicode="&#xbb;" horiz-adv-x="429" 
d="M111 444l124 -190l-124 -190h-21l122 190l-122 190h21zM233 444l124 -190l-124 -190h-22l123 190l-123 190h22z" />
    <glyph glyph-name="quoteleft" unicode="&#x2018;" horiz-adv-x="235" 
d="M117 584q20 -3 20 -23q0 -10 -7 -16.5t-17 -6.5t-16.5 6.5t-6.5 16.5q0 3 0.5 6t2 8t3.5 10.5t6.5 17.5t9 24.5t13 35t17.5 46.5h21z" />
    <glyph glyph-name="quoteright" unicode="&#x2019;" horiz-adv-x="235" 
d="M140 711q10 0 16.5 -6.5t6.5 -16.5q0 -3 -0.5 -6t-2 -8t-3.5 -10.5t-6.5 -17.5t-9 -24.5t-13 -35t-17.5 -46.5h-21l45 124q-19 3 -19 24q0 10 7 16.5t17 6.5z" />
    <glyph glyph-name="quotesinglbase" unicode="&#x201a;" horiz-adv-x="235" 
d="M140 37q10 0 16.5 -7t6.5 -16q0 -3 -0.5 -6t-2 -8t-3.5 -10.5t-6.5 -17.5t-9 -24.5t-13 -35t-17.5 -46.5h-21l45 124q-19 3 -19 24q0 9 7 16t17 7z" />
    <glyph glyph-name="quotedblleft" unicode="&#x201c;" horiz-adv-x="339" 
d="M142 710h21l-46 -125q20 -3 20 -23q0 -10 -7 -16.5t-17 -6.5t-16.5 6.5t-6.5 16.5q0 3 0.5 6t2 8t3.5 10.5t6.5 17.5t9 24.5t13 35t17.5 46.5zM221 586q19 -3 19 -24q0 -10 -7 -16.5t-17 -6.5q-9 0 -16 6.5t-7 16.5q0 3 0.5 6t2 8.5t3.5 10.5t6.5 17t9.5 24.5t13.5 35
t17.5 46.5h21z" />
    <glyph glyph-name="quotedblright" unicode="&#x201d;" horiz-adv-x="329" 
d="M130 710q10 0 16.5 -6.5t6.5 -16.5q0 -3 -0.5 -6t-1.5 -8t-2.5 -11t-5.5 -17.5t-7.5 -24t-10.5 -35t-14 -46.5h-21l36 124q-20 4 -20 24q0 10 7 16.5t17 6.5zM234 710q9 0 16 -6.5t7 -16.5q0 -7 -43 -148h-21l37 124q-20 3 -20 24q0 10 7 16.5t17 6.5z" />
    <glyph glyph-name="quotedblbase" unicode="&#x201e;" horiz-adv-x="342" 
d="M140 37q10 0 16.5 -7t6.5 -16q0 -3 -0.5 -6t-2 -8t-3.5 -10.5t-6.5 -17.5t-9 -24.5t-13 -35t-17.5 -46.5h-21l45 124q-19 3 -19 24q0 9 7 16t17 7zM247 37q10 0 16.5 -7t6.5 -16q0 -3 -0.5 -6t-2 -8.5t-3.5 -10.5t-6.5 -17t-9.5 -24.5t-13.5 -35t-17.5 -46.5h-21l46 124
q-19 3 -19 24q0 9 7 16t17 7z" />
    <glyph glyph-name="i.loclTRK" horiz-adv-x="201" 
d="M101 639q-10 0 -16.5 6.5t-6.5 16.5q0 9 6.5 16t16.5 7q9 0 15.5 -7t6.5 -16q0 -10 -6 -16.5t-16 -6.5zM111 0h-21v500h21v-500z" />
    </font>
</defs>
</svg>
